<svg width="57" height="57" viewBox="0 0 57 57" fill="none" xmlns="http://www.w3.org/2000/svg">
<g clip-path="url(#clip0_75_131)">
<path d="M47.1684 48.1327C45.7159 48.1327 44.5342 49.3144 44.5342 50.7669C44.5342 52.2195 45.7159 53.4013 47.1684 53.4013C48.621 53.4013 49.8028 52.2195 49.8028 50.7669C49.8028 49.3144 48.6209 48.1327 47.1684 48.1327ZM47.1684 51.7314C46.6367 51.7314 46.2041 51.2986 46.2041 50.7669C46.2041 50.2352 46.6367 49.8026 47.1684 49.8026C47.7001 49.8026 48.1329 50.2352 48.1329 50.7669C48.1329 51.2986 47.7001 51.7314 47.1684 51.7314Z" fill="#A9613D"/>
<path d="M28.4996 48.1328C27.047 48.1328 25.8652 49.3146 25.8652 50.7671C25.8652 52.2197 27.047 53.4014 28.4996 53.4014C29.9522 53.4014 31.1339 52.2197 31.1339 50.7671C31.1339 49.3146 29.9522 48.1328 28.4996 48.1328ZM28.4996 51.7315C27.9679 51.7315 27.5352 51.2988 27.5352 50.7671C27.5352 50.2354 27.9679 49.8027 28.4996 49.8027C29.0313 49.8027 29.464 50.2354 29.464 50.7671C29.464 51.2988 29.0313 51.7315 28.4996 51.7315Z" fill="#A9613D"/>
<path d="M9.83162 48.1327C8.37901 48.1327 7.19727 49.3144 7.19727 50.7669C7.19727 52.2195 8.37901 53.4013 9.83162 53.4013C11.2841 53.4013 12.4659 52.2195 12.4659 50.7669C12.466 49.3144 11.2841 48.1327 9.83162 48.1327ZM9.83162 51.7314C9.29992 51.7314 8.86719 51.2986 8.86719 50.7669C8.86719 50.2352 9.29992 49.8026 9.83162 49.8026C10.3633 49.8026 10.7959 50.2352 10.7959 50.7669C10.7959 51.2986 10.3634 51.7314 9.83162 51.7314Z" fill="#A9613D"/>
<path d="M56.165 55.3301H51.4081C52.6329 54.1912 53.4012 52.5674 53.4012 50.7669C53.4012 48.9665 52.6329 47.3428 51.4081 46.2039H56.165C56.6263 46.2039 57 45.8302 57 45.369C57 44.9077 56.6263 44.534 56.165 44.534H53.6268V37.0077C53.6268 36.5464 53.253 36.1727 52.7918 36.1727C52.3306 36.1727 51.9568 36.5464 51.9568 37.0077V44.5334H37.8816V30.9369C37.8816 30.6737 38.0959 30.4594 38.3592 30.4594H41.9848V34.0611C41.9848 34.5279 42.2384 34.9586 42.6467 35.1849C43.0548 35.4111 43.5546 35.398 43.9507 35.1507L44.919 34.5453L45.8876 35.1507C46.0954 35.2805 46.3318 35.3459 46.5684 35.3459C46.7828 35.3459 46.9974 35.2924 47.1913 35.1849C47.5996 34.9586 47.8532 34.5281 47.8532 34.0611V30.4594H51.4791C51.7424 30.4594 51.9567 30.6737 51.9567 30.9369V33.1002C51.9567 33.5614 52.3305 33.9351 52.7917 33.9351C53.2529 33.9351 53.6266 33.5614 53.6266 33.1002V30.9369C53.6266 29.7528 52.6633 28.7894 51.4791 28.7894H38.3592C37.175 28.7894 36.2117 29.7528 36.2117 30.9369V44.534H20.7883V30.9369C20.7883 29.7528 19.825 28.7894 18.6408 28.7894H5.52076C4.33656 28.7894 3.37324 29.7528 3.37324 30.9369V38.2412C3.37324 38.7024 3.74697 39.0761 4.2082 39.0761C4.66944 39.0761 5.04316 38.7024 5.04316 38.2412V30.9369C5.04316 30.6737 5.25747 30.4594 5.52076 30.4594H9.14672V34.0611C9.14672 34.5279 9.40032 34.9586 9.80857 35.1849C10.2168 35.4111 10.7164 35.398 11.1123 35.1507L12.0809 34.5453L13.0493 35.1507C13.2572 35.2805 13.4935 35.3459 13.7303 35.3459C13.9446 35.3459 14.1593 35.2924 14.3532 35.1849C14.7614 34.9586 15.015 34.5281 15.015 34.0611V30.4594H18.6407C18.904 30.4594 19.1183 30.6737 19.1183 30.9369V44.5334H5.04316V42.1488C5.04316 41.6876 4.66944 41.3138 4.2082 41.3138C3.74697 41.3138 3.37324 41.6876 3.37324 42.1488V44.534H0.834961C0.373729 44.534 0 44.9077 0 45.369C0 45.8302 0.373729 46.2039 0.834961 46.2039H5.59179C4.36696 47.3428 3.59868 48.9665 3.59868 50.7669C3.59868 52.5674 4.36696 54.1912 5.59179 55.3301H0.834961C0.373729 55.3301 0 55.7038 0 56.165C0 56.6262 0.373729 57 0.834961 57H56.165C56.6263 57 57 56.6262 57 56.165C57 55.7038 56.6263 55.3301 56.165 55.3301ZM46.1834 33.3662L45.6003 33.0019C45.1867 32.743 44.652 32.743 44.2381 33.0016L43.6549 33.3662V30.4594H46.1835V33.3662H46.1834ZM13.3452 33.3662L12.762 33.0018C12.3482 32.743 11.8134 32.7431 11.4001 33.0016L10.8168 33.3662V30.4594H13.3453L13.3452 33.3662ZM51.7314 50.7669C51.7314 53.2831 49.6843 55.3301 47.1683 55.3301C44.6523 55.3301 42.6053 53.2829 42.6053 50.7669C42.6053 48.2509 44.6523 46.2039 47.1683 46.2039C49.6843 46.2039 51.7314 48.2508 51.7314 50.7669ZM28.5 55.3301C25.9839 55.3301 23.9369 53.2829 23.9369 50.7669C23.9369 48.2509 25.984 46.2039 28.5 46.2039C31.016 46.2039 33.0631 48.2509 33.0631 50.7669C33.0631 53.2829 31.0161 55.3301 28.5 55.3301ZM5.2686 50.7669C5.2686 48.2508 7.31571 46.2039 9.83172 46.2039C12.3477 46.2039 14.3947 48.2509 14.3947 50.7669C14.3947 53.2829 12.3478 55.3301 9.83172 55.3301C7.31559 55.3301 5.2686 53.2829 5.2686 50.7669ZM14.0717 55.3301C15.2965 54.1912 16.0648 52.5674 16.0648 50.7669C16.0648 48.9665 15.2965 47.3428 14.0717 46.2039H24.2601C23.0352 47.3428 22.267 48.9665 22.267 50.7669C22.267 52.5674 23.0352 54.1912 24.2601 55.3301H14.0717ZM32.7399 55.3301C33.9648 54.1912 34.733 52.5674 34.733 50.7669C34.733 48.9665 33.9648 47.3428 32.7399 46.2039H42.9283C41.7035 47.3428 40.9352 48.9665 40.9352 50.7669C40.9352 52.5674 41.7035 54.1912 42.9283 55.3301H32.7399Z" fill="#A9613D"/>
<path d="M13.9225 12.2337L16.9805 14.6997C16.8921 15.2817 16.8475 15.8721 16.8475 16.4609C16.8475 17.0498 16.8921 17.6402 16.9805 18.2221L13.9226 20.6879C13.1361 21.3219 12.9319 22.4171 13.4371 23.2922L15.0527 26.0906C15.558 26.9653 16.6087 27.3358 17.5506 26.9721L21.2159 25.5564C22.1418 26.2999 23.1644 26.8912 24.2661 27.3204L24.8721 31.1994C25.0281 32.1974 25.8745 32.9218 26.8846 32.9218H30.1159C31.126 32.9218 31.9724 32.1974 32.1284 31.1994L32.7345 27.3204C33.8362 26.8913 34.8586 26.2999 35.7846 25.5564L39.4499 26.9721C40.3917 27.3358 41.4427 26.9652 41.9479 26.0905L43.5635 23.2922C44.0687 22.4173 43.8644 21.322 43.0781 20.688L40.02 18.2221C40.1084 17.6401 40.153 17.0498 40.153 16.4609C40.153 15.8721 40.1084 15.2816 40.02 14.6997L43.078 12.2338C43.8645 11.5998 44.0687 10.5046 43.5635 9.62966L41.9481 6.83109C41.4428 5.95628 40.3918 5.58556 39.4501 5.9496L35.7849 7.36536C34.8588 6.6218 33.8364 6.03053 32.7347 5.60136L32.1286 1.72236C31.9724 0.724412 31.1261 0 30.116 0H26.8847C25.8746 0 25.0282 0.724412 24.8722 1.72247L24.2662 5.60147C23.1645 6.03053 22.1419 6.62191 21.216 7.36547L17.5507 5.94971C16.6087 5.58567 15.5579 5.95661 15.0528 6.83132L13.4372 9.62966C12.9317 10.5045 13.1359 11.5997 13.9225 12.2337ZM14.8832 10.4646L16.4988 7.66628C16.5897 7.50864 16.7789 7.44139 16.949 7.5073L21.074 9.10063C21.3637 9.21263 21.6915 9.1544 21.9251 8.94978C22.9153 8.0822 24.0454 7.4287 25.284 7.00744C25.5781 6.90746 25.7921 6.65252 25.8401 6.34593L26.5222 1.98042C26.5503 1.80062 26.7028 1.67003 26.8848 1.67003H30.1161C30.2982 1.67003 30.4507 1.80062 30.4787 1.98042L31.1608 6.34593C31.2088 6.65263 31.4229 6.90746 31.7169 7.00744C32.9554 7.42859 34.0855 8.08209 35.0759 8.94978C35.3094 9.15451 35.6372 9.21251 35.927 9.10063L40.0519 7.5073C40.2224 7.44162 40.4113 7.50864 40.5022 7.66617L42.1177 10.4647C42.2087 10.6223 42.172 10.8195 42.0302 10.9339L38.5895 13.7084C38.3482 13.903 38.2345 14.2155 38.2945 14.5197C38.4201 15.1568 38.4837 15.8099 38.4837 16.461C38.4837 17.1121 38.4201 17.7653 38.2945 18.4022C38.2345 18.7065 38.3481 19.019 38.5895 19.2136L42.0304 21.9882C42.172 22.1024 42.2088 22.2998 42.1177 22.4574L40.5022 25.2557C40.4112 25.4132 40.2217 25.4803 40.0519 25.4147L35.927 23.8213C35.6373 23.7094 35.3095 23.7677 35.0759 23.9722C34.0855 24.8399 32.9554 25.4934 31.7169 25.9145C31.4229 26.0145 31.2088 26.2694 31.1608 26.576L30.4787 30.9415C30.4507 31.1213 30.2982 31.2519 30.1161 31.2519H26.8848C26.7028 31.2519 26.5503 31.1213 26.5222 30.9415L25.8401 26.576C25.7921 26.2693 25.5781 26.0145 25.284 25.9145C24.0454 25.4932 22.9153 24.8398 21.9251 23.9722C21.7702 23.8364 21.5739 23.7652 21.3748 23.7652C21.2736 23.7652 21.1717 23.7836 21.0741 23.8213L16.9491 25.4147C16.779 25.4806 16.5899 25.4133 16.4989 25.2558L14.8833 22.4574C14.7924 22.2998 14.8291 22.1025 14.9708 21.9881L18.4115 19.2136C18.653 19.019 18.7666 18.7065 18.7066 18.4022C18.581 17.7653 18.5174 17.1121 18.5174 16.461C18.5174 15.8099 18.581 15.1568 18.7066 14.5197C18.7666 14.2155 18.6529 13.903 18.4115 13.7084L14.9706 10.9338C14.8289 10.8195 14.7922 10.6223 14.8832 10.4646Z" fill="#A9613D"/>
<path d="M28.5004 24.6469C33.0142 24.6469 36.6864 20.9748 36.6864 16.4611C36.6864 11.9473 33.0142 8.27515 28.5004 8.27515C27.3694 8.27515 26.274 8.5017 25.2445 8.94868C24.8215 9.13226 24.6274 9.624 24.811 10.047C24.9946 10.4701 25.4863 10.6639 25.9094 10.4806C26.7278 10.1253 27.5995 9.94507 28.5003 9.94507C32.0932 9.94507 35.0163 12.8682 35.0163 16.4611C35.0163 20.054 32.0933 22.977 28.5004 22.977C24.9075 22.977 21.9844 20.054 21.9844 16.4611C21.9844 15.0741 22.4137 13.751 23.226 12.6352C23.4974 12.2624 23.4152 11.7401 23.0424 11.4687C22.6695 11.1973 22.1475 11.2794 21.8759 11.6523C20.8544 13.0556 20.3145 14.7185 20.3145 16.461C20.3145 20.9747 23.9866 24.6469 28.5004 24.6469Z" fill="#A9613D"/>
<path d="M28.5 11.8735C28.0388 11.8735 27.665 12.2473 27.665 12.7085V16.4608C27.665 16.922 28.0388 17.2958 28.5 17.2958H30.9028C31.364 17.2958 31.7378 16.922 31.7378 16.4608C31.7378 15.9996 31.364 15.6258 30.9028 15.6258H29.335V12.7085C29.335 12.2474 28.9612 11.8735 28.5 11.8735Z" fill="#A9613D"/>
</g>
<defs>
<clipPath id="clip0_75_131">
<rect width="57" height="57" fill="white"/>
</clipPath>
</defs>
</svg>
