<svg width="57" height="57" viewBox="0 0 57 57" fill="none" xmlns="http://www.w3.org/2000/svg">
<g clip-path="url(#clip0_75_111)">
<path d="M47.246 6.2167L44.4986 1.81478C44.2717 1.45119 43.8572 1.25035 43.4304 1.29778L38.6127 1.83627C38.5268 1.41823 38.205 1.07378 37.7699 0.974702L33.6142 0.0279677C33.352 -0.0319268 33.0768 0.00547939 32.8398 0.132839L29.1314 2.12639L27.581 0.375423C27.2537 0.00581341 26.7223 -0.10429 26.2753 0.105229L21.1005 2.52851L20.227 0.645059C20.0104 0.178261 19.5024 -0.07913 18.9978 0.021956L13.4535 1.13591C13.1594 1.19502 12.9017 1.37025 12.7386 1.62196L9.76211 6.21469C8.25362 6.51595 7.11328 7.84944 7.11328 9.44444V48.1679C7.11328 49.5925 8.02461 50.8081 9.29554 51.265V53.116C9.29554 55.2577 11.0407 57 13.1858 57H18.4675H23.4899C24.1047 57 24.6032 56.5016 24.6032 55.8867C24.6032 55.2719 24.1047 54.7735 23.4899 54.7735H18.4674H13.1857C12.2683 54.7735 11.5221 54.0299 11.5221 53.116V51.4586H25.2475C25.2485 51.4586 25.2495 51.4587 25.2504 51.4587C25.2511 51.4587 25.2516 51.4586 25.2523 51.4586H45.4739V53.116C45.4739 54.0299 44.7292 54.7735 43.8135 54.7735H33.5094C32.8946 54.7735 32.3961 55.2719 32.3961 55.8867C32.3961 56.5016 32.8946 57 33.5094 57H43.8135C45.9568 57 47.7005 55.2577 47.7005 53.116V51.2653C48.9732 50.8086 49.886 49.5928 49.886 48.1679V9.44444C49.886 7.85344 48.7503 6.52241 47.246 6.2167ZM43.4498 49.2321V8.37713H46.5857C46.5866 8.37713 46.5875 8.37724 46.5882 8.37724C46.5886 8.37724 46.5888 8.37713 46.5891 8.37713C47.1794 8.37825 47.6593 8.85651 47.6593 9.44432V48.1678C47.6593 48.7545 47.1784 49.232 46.5871 49.232H43.4498V49.2321ZM25.6243 49.2321C23.4737 47.4928 23.9234 44.6396 25.0156 42.6388C25.1864 42.4109 25.345 42.2024 25.4932 42.0077C26.7896 40.3036 27.3593 39.4626 28.0521 36.8781C29.0455 37.5626 30.0572 38.5094 29.8011 39.4088C29.8004 39.4114 29.8001 39.414 29.7993 39.4164C29.7984 39.4195 29.7972 39.4224 29.7964 39.4254C29.5964 40.1713 29.0566 41.6409 27.6873 43.1023C27.2669 43.5509 27.2898 44.2555 27.7385 44.6759C27.9534 44.8772 28.2267 44.9768 28.4994 44.9768C28.7965 44.9768 29.0929 44.8586 29.3121 44.6247C30.4791 43.3792 31.1652 42.113 31.5632 41.1348C32.5413 41.6847 32.972 42.7092 33.1581 43.5646C33.6011 45.6043 32.9717 48.137 31.799 49.232H25.6243V49.2321ZM35.3337 43.0919C34.8908 41.0539 33.723 39.5767 32.067 38.9095C31.9874 37.5575 31.0373 35.8639 27.8613 34.163C27.556 33.9995 27.1921 33.9874 26.8768 34.1301C26.5614 34.2728 26.3303 34.5542 26.2516 34.8914C25.4293 38.414 24.931 38.8614 23.7211 40.6595C22.0148 43.1953 21.152 45.9415 22.7372 49.2321H15.7759V31.256H41.2232V49.2321H34.5229C35.4363 47.4958 35.7884 45.1841 35.3337 43.0919ZM10.4088 49.2321C9.81945 49.2321 9.33984 48.7547 9.33984 48.1679V9.44444C9.33984 8.85595 9.81945 8.37713 10.4088 8.37713H13.5494V49.232H10.4088V49.2321ZM41.2232 8.37713V29.0293H15.7761V8.37713H41.2232ZM44.5801 6.15057H38.2679L38.4554 4.09423L42.9811 3.58835L44.5801 6.15057ZM33.5267 2.2916L36.3257 2.92929L36.3228 2.96124C36.3208 2.97827 36.3192 2.99542 36.3181 3.01256L36.032 6.15057H32.6948L30.648 3.83906L33.5267 2.2916ZM26.4658 2.47474L29.7209 6.15068H22.7807L22.0376 4.54845L26.4658 2.47474ZM14.3519 3.22654L18.5763 2.37777L20.3263 6.15068H12.4569L14.3519 3.22654Z" fill="#A9613D"/>
<path d="M22.8223 22.1045H34.1733C34.788 22.1045 35.2866 21.6061 35.2866 20.9912C35.2866 20.3763 34.788 19.8779 34.1733 19.8779H22.8223C22.2074 19.8779 21.709 20.3763 21.709 20.9912C21.709 21.6061 22.2074 22.1045 22.8223 22.1045Z" fill="#A9613D"/>
<path d="M22.8223 17.5286H34.1733C34.788 17.5286 35.2866 17.0301 35.2866 16.4153C35.2866 15.8004 34.788 15.302 34.1733 15.302H22.8223C22.2074 15.302 21.709 15.8004 21.709 16.4153C21.709 17.0301 22.2074 17.5286 22.8223 17.5286Z" fill="#A9613D"/>
<path d="M22.8223 12.9529H34.1733C34.788 12.9529 35.2866 12.4545 35.2866 11.8396C35.2866 11.2247 34.788 10.7263 34.1733 10.7263H22.8223C22.2074 10.7263 21.709 11.2247 21.709 11.8396C21.709 12.4545 22.2074 12.9529 22.8223 12.9529Z" fill="#A9613D"/>
<path d="M22.8223 26.6802H34.1733C34.788 26.6802 35.2866 26.1818 35.2866 25.5669C35.2866 24.952 34.788 24.4536 34.1733 24.4536H22.8223C22.2074 24.4536 21.709 24.952 21.709 25.5669C21.709 26.1818 22.2074 26.6802 22.8223 26.6802Z" fill="#A9613D"/>
<path d="M28.5 54.7734C27.8851 54.7734 27.3867 55.2719 27.3867 55.8867C27.3867 56.5016 27.8851 57 28.5 57H28.5031C29.1179 57 29.6148 56.5016 29.6148 55.8867C29.6148 55.2719 29.1148 54.7734 28.5 54.7734Z" fill="#A9613D"/>
</g>
<defs>
<clipPath id="clip0_75_111">
<rect width="57" height="57" fill="white"/>
</clipPath>
</defs>
</svg>
