<svg width="57" height="57" viewBox="0 0 57 57" fill="none" xmlns="http://www.w3.org/2000/svg">
<g clip-path="url(#clip0_75_124)">
<path d="M11.4004 3.80005H13.3004V5.70005H11.4004V3.80005Z" fill="#A9613D"/>
<path d="M15.2002 3.80005H17.1002V5.70005H15.2002V3.80005Z" fill="#A9613D"/>
<path d="M19 3.80005H20.9V5.70005H19V3.80005Z" fill="#A9613D"/>
<path d="M0.95 57H30.4C30.7841 57 31.1306 56.7686 31.2776 56.4137C31.4247 56.0589 31.343 55.6502 31.0717 55.3784L1.62168 25.9284C1.34985 25.657 0.941186 25.5754 0.586328 25.7224C0.23147 25.8695 0 26.216 0 26.6V56.05C0 56.5747 0.425366 57 0.95 57ZM1.9 28.8934L28.1066 55.1H1.9V28.8934Z" fill="#A9613D"/>
<path d="M16.8219 49.6784L7.32187 40.1784C7.05005 39.907 6.64138 39.8254 6.28652 39.9724C5.93167 40.1195 5.7002 40.466 5.7002 40.85V50.35C5.7002 50.8747 6.12556 51.3 6.6502 51.3H16.1502C16.5343 51.3 16.8808 51.0686 17.0278 50.7137C17.1749 50.3589 17.0932 49.9502 16.8219 49.6784ZM7.6002 49.4V43.1434L13.8568 49.4H7.6002Z" fill="#A9613D"/>
<path d="M55.9336 8.10933C57.354 6.68896 57.354 4.38633 55.9336 2.96597C54.5133 1.54561 52.2106 1.54561 50.7903 2.96597L49.3653 4.39097C49.1821 1.91995 47.1276 0.00649414 44.6496 0H12.3496C9.72737 0.00324708 7.60286 2.12776 7.59961 4.75V29.45H9.49961V4.75C9.49961 3.1761 10.7757 1.9 12.3496 1.9H44.6496C46.2235 1.9 47.4996 3.1761 47.4996 4.75V6.25664L38.5563 15.2H31.5737C29.7006 10.4041 24.6119 7.68813 19.585 8.80234C14.5576 9.91609 11.0925 14.5269 11.4205 19.6652C11.7484 24.8039 15.772 28.937 20.8996 29.4027V33.25C20.8996 33.7746 21.325 34.2 21.8496 34.2H42.7496C43.2742 34.2 43.6996 33.7746 43.6996 33.25V20.3434L47.4996 16.5434V36.1H25.6496C25.125 36.1 24.6996 36.5254 24.6996 37.05V44.65C24.6996 45.1746 25.125 45.6 25.6496 45.6H47.4996V46.55C47.4996 48.1239 46.2235 49.4 44.6496 49.4H29.4496V51.3H44.6496C47.2719 51.2968 49.3964 49.1722 49.3996 46.55V45.6H56.0496C56.5742 45.6 56.9996 45.1746 56.9996 44.65V37.05C56.9996 36.5254 56.5742 36.1 56.0496 36.1H49.3996V14.6434L55.9336 8.10933ZM52.1336 4.30933C52.5692 3.85427 53.2168 3.67104 53.8263 3.82969C54.4354 3.98833 54.9113 4.46426 55.0699 5.07332C55.2286 5.68284 55.0453 6.3304 54.5903 6.76597L54.1496 7.20664L51.693 4.75L52.1336 4.30933ZM30.3996 19C30.3936 23.3515 27.1238 27.0063 22.7996 27.4939V17.1H30.1793C30.3235 17.723 30.3978 18.3603 30.3996 19ZM20.8996 16.15V27.4939C16.8245 27.0453 13.6415 23.7667 13.3131 19.68C12.9846 15.5934 15.6032 11.849 19.5544 10.7552C23.5056 9.66143 27.6772 11.5262 29.4969 15.2H21.8496C21.325 15.2 20.8996 15.6254 20.8996 16.15ZM41.7996 32.3H22.7996V29.4027C25.7289 29.1462 28.4129 27.6627 30.1886 25.3188C31.9638 22.9749 32.6647 19.989 32.1182 17.1H36.6563L34.4779 19.2783C34.3453 19.4105 34.2548 19.5798 34.2186 19.764L33.2686 24.514C33.213 24.7928 33.2849 25.0822 33.4653 25.3021C33.6458 25.522 33.9153 25.65 34.1996 25.65C34.2636 25.6505 34.3272 25.644 34.3898 25.631L39.1398 24.681C39.3235 24.6448 39.4928 24.5543 39.625 24.4217L41.7996 22.2434V32.3ZM35.7327 21.8764L37.0232 23.1669L35.408 23.4888L35.7327 21.8764ZM51.2996 38V39.9H53.1996V38H55.0996V43.7H26.5996V38H28.4996V39.9H30.3996V38H32.2996V39.9H34.1996V38H36.0996V39.9H37.9996V38H39.8996V39.9H41.7996V38H43.6996V39.9H45.5996V38H47.4996V39.9H49.3996V38H51.2996ZM38.9496 22.4066L36.493 19.95L50.3496 6.09336L52.8063 8.55L38.9496 22.4066Z" fill="#A9613D"/>
</g>
<defs>
<clipPath id="clip0_75_124">
<rect width="57" height="57" fill="white"/>
</clipPath>
</defs>
</svg>
