<svg width="48" height="64" viewBox="0 0 48 64" fill="none" xmlns="http://www.w3.org/2000/svg">
<g clip-path="url(#clip0_83_519)">
<mask id="mask0_83_519" style="mask-type:luminance" maskUnits="userSpaceOnUse" x="0" y="0" width="48" height="64">
<path d="M47.9944 0H0V63.9887H47.9944V0Z" fill="white"/>
</mask>
<g mask="url(#mask0_83_519)">
<path fill-rule="evenodd" clip-rule="evenodd" d="M3.95405 26.8533C2.73269 29.629 2.77995 33.4029 2.82981 37.2699C2.89529 42.331 2.96312 47.5598 0.0498047 50.6987V23.0956C1.00586 24.6882 2.39978 25.9776 3.95405 26.8533ZM0.0498047 17.9922V6.98926H9.84341C9.72378 8.41504 9.37041 9.58093 8.8299 10.4433C8.49246 10.9818 8.08396 11.3992 7.61654 11.6797C7.156 11.9571 6.63338 12.1065 6.06106 12.1165C5.24964 12.1315 4.33325 11.8692 3.34321 11.2984L2.70687 10.931L2.73066 11.644C2.80828 13.9702 3.51148 15.4135 4.50468 16.1599C3.55422 15.8631 2.49667 15.1674 1.30387 13.9369L0.740537 13.3548C0.740537 13.3546 0.607474 14.1383 0.607474 14.1383C0.260974 16.1697 0.608527 17.7832 1.37947 18.9912C0.881696 18.6554 0.431189 18.312 0.0498047 17.9922ZM11.7983 7.59496C11.7282 7.39444 11.6493 7.19169 11.56 6.98926H11.7485L11.7983 7.59496ZM36.0775 6.98926H36.4885C36.3102 7.39444 36.17 7.79771 36.0651 8.19643L36.0775 6.98926ZM13.0025 10.6969C12.9371 10.9472 12.8943 11.1965 12.8624 11.4284C12.7779 11.205 12.6909 10.981 12.6009 10.7534C12.735 10.7337 12.8683 10.7153 13.0025 10.6969ZM38.2051 6.98926H48.019V17.9989C47.6522 18.289 47.2369 18.5914 46.7877 18.8828C47.4929 17.6921 47.7989 16.1275 47.4671 14.1804L47.3338 13.3969L46.7705 13.9779C45.5529 15.2337 44.4772 15.9325 43.5109 16.2184C44.38 15.4493 44.9828 14.0591 45.0561 11.8931L45.0799 11.1801L44.4433 11.5475C43.4976 12.0939 42.634 12.3429 41.8745 12.3287C41.3359 12.319 40.845 12.1748 40.4127 11.9095C39.9714 11.6385 39.5842 11.2389 39.2614 10.7231C38.6883 9.80751 38.3202 8.53857 38.2051 6.98926ZM48.019 23.3568V50.9534C44.8531 47.848 44.9218 42.4716 44.9896 37.2699C45.0395 33.418 45.0865 29.6583 43.88 26.8846C43.9931 26.8294 44.1058 26.7718 44.2177 26.7123C45.6895 25.931 47.0323 24.7826 48.019 23.3568Z" fill="#A9613D"/>
<path fill-rule="evenodd" clip-rule="evenodd" d="M34.6338 25.0111C34.6295 24.4856 34.9149 23.4996 35.1079 23.0142C35.2584 22.6339 35.4377 22.2939 35.6453 22.0468C36.0111 21.6113 36.457 21.414 36.9975 21.5777C37.196 21.6374 36.9907 21.9534 37.1634 22.1248C37.4513 22.7609 38.221 23.2939 39.1758 23.2929C39.3374 23.2929 39.5754 23.3621 39.6905 23.4672C44.0936 27.5021 43.6376 33.7962 43.2142 39.6385C42.8578 44.5643 42.5259 49.1429 45.3281 51.2678L46.8025 52.3871L44.9445 52.6481C44.4164 52.7227 43.9004 52.749 43.3973 52.7305C44.9445 52.6481 41.7585 51.0152 43.0032 51.1443C40.9582 48.3454 41.2673 44.0766 41.5959 39.5357C42.0438 33.3454 42.5315 26.6105 36.7547 23.2744C36.7107 23.3599 36.668 23.4597 36.6249 23.5691C36.4558 23.995 36.3146 24.4975 36.2119 24.9451L34.6338 25.0111Z" fill="#A9613D"/>
<path fill-rule="evenodd" clip-rule="evenodd" d="M31.5 25.2386C36.579 23.9276 38.8556 25.3492 39.7 28.3612C40.4031 30.8707 39.8795 34.9392 39.2948 38.9525L37.7291 38.5081C38.3038 34.5751 38.7663 31.0279 38.132 28.7632C37.6289 26.9668 36.2855 26.0154 33.4142 26.436L32.9729 28.1521L31.1637 26.5651L30.0732 25.6069L31.5 25.2386ZM39.5464 56.6353C40.0384 57.6731 40.6942 58.6051 41.5497 59.3972C41.5497 59.397 43.113 60.8448 43.113 60.8448C43.113 60.8445 40.9469 60.7342 40.9469 60.7342C38.0769 60.589 35.825 59.288 34.1356 57.2713C33.2503 56.2168 33.387 54.8279 32.8103 53.4489L33.8036 53.8095L35.6953 56.6353C36.5982 57.6148 37.6739 58.3602 38.9302 58.7859C38.4684 58.1144 38.0902 57.3949 37.7822 56.6353H39.5464Z" fill="#A9613D"/>
<path fill-rule="evenodd" clip-rule="evenodd" d="M18.9296 58.8002C18.4 59.381 17.8054 59.9262 17.1381 60.4168C16.4734 60.9054 15.732 61.3443 14.908 61.7159L14.9092 61.7169L14.9022 61.7194L13.8955 62.1766L13.7533 61.1135C13.5049 59.2585 13.602 56.6419 13.9258 53.8737L15.7692 51.8843L15.8481 51.7229C15.3855 54.6365 15.1394 57.5661 15.2568 59.7723C15.5704 59.588 15.8683 59.3898 16.1539 59.1795C16.7352 58.7516 17.2532 58.2792 17.7105 57.7764C19.4125 56.8944 19.1087 58.603 18.9296 58.8002Z" fill="#A9613D"/>
<path fill-rule="evenodd" clip-rule="evenodd" d="M32.7985 54.2594C31.2561 57.3078 28.4245 60.2809 24.4246 63.5585L23.8775 64.0075L23.3365 63.5505C18.8385 59.7514 15.8853 56.4266 14.6143 52.902L15.8934 51.6963C16.8495 55.0951 19.5683 58.3157 23.8932 62.0372C28.0183 58.5911 30.7472 55.5213 31.9102 52.3613C31.9592 52.2278 32.006 52.093 32.0483 51.9595L32.7985 54.2594Z" fill="#A9613D"/>
<path fill-rule="evenodd" clip-rule="evenodd" d="M11.4141 24.9302C11.4195 24.7318 11.2861 23.9083 11.0279 23.3004L11.0132 23.2661C5.13601 26.5835 5.62698 33.3575 6.07773 39.5811C6.40699 44.1223 6.71513 48.3911 4.67118 51.1897C4.67118 51.1897 3.41832 52.7533 2.72986 52.6938L0.871094 52.4325L2.34588 51.3132C5.14742 49.1886 4.81557 44.6107 4.4592 39.6842C4.06381 34.2255 3.64042 28.3714 7.17793 24.335C7.34718 24.1423 7.52678 23.9527 7.71415 23.7686C8.38676 23.1074 9.19364 23.412 10.1295 22.8758C10.3282 22.6708 11.0213 22.0088 11.2368 21.9406C11.7411 21.7815 11.6632 21.5526 12.0146 21.8995C12.2265 22.1097 12.397 22.3969 12.5326 22.7154C12.8351 23.4272 13.0043 24.4359 13.0304 24.8488L13.1227 25.3103C12.563 25.386 12.1091 25.4338 11.5843 25.5735L11.5312 25.6104L11.4276 25.0949C11.4276 25.0946 11.4116 25.0199 11.4116 25.0199L11.4141 24.9302Z" fill="#A9613D"/>
<path fill-rule="evenodd" clip-rule="evenodd" d="M15.2831 25.8401C12.2766 25.3298 10.2753 26.9203 9.71106 28.7949C9.05772 30.9629 9.36327 34.3033 9.81143 38.0338C9.81143 38.0336 8.3194 39.1952 8.3194 39.1952C7.79103 34.9177 7.3542 31.0235 8.15574 28.3613C9.0812 25.2853 11.4436 23.8604 16.6356 25.3004L18.0485 25.6918L16.947 26.6287C16.3151 27.1673 15.8227 27.6864 15.4461 28.1945L14.1095 28.2433C14.359 27.4675 14.7383 26.671 15.2831 25.8401ZM16.6988 51.6859C15.4956 55.2668 13.4253 58.2714 10.4729 59.824C9.8557 60.1502 9.20188 60.4115 8.51365 60.5998C7.82842 60.7873 7.10378 60.9044 6.33737 60.9445H6.33186L4.16699 61.0538L5.72911 59.6076C6.58221 58.8175 7.23814 57.8846 7.74166 56.8456C8.12409 56.0566 9.73356 56.3276 9.44243 57.0059C9.13761 57.7177 8.76958 58.3927 8.33178 59.0243C8.80803 58.8761 9.26185 58.6864 9.6918 58.4599C12.017 57.2359 13.7324 54.9127 14.8388 52.0824L16.6988 51.6859Z" fill="#A9613D"/>
<path fill-rule="evenodd" clip-rule="evenodd" d="M36.6375 10.0687C36.6068 13.4808 37.3269 16.3605 38.4409 18.4419C39.1159 19.7043 39.9273 20.6577 40.7919 21.2385C41.5752 21.7631 42.398 21.972 43.1836 21.8041C43.6736 21.6991 44.1655 21.4487 44.6431 21.037L44.6443 21.0358L44.6757 21.0089L45.7987 22.1271C43.9366 23.9375 42.1216 24.7609 40.4838 24.8281C39.1734 24.8822 37.9962 24.4566 37.0074 23.6656C36.0673 22.9124 35.3065 21.8226 34.7761 20.4999C33.6462 17.68 33.5615 13.7482 35.066 9.79772L36.6769 5.56812L36.6375 10.0687ZM36.9996 19.1484C36.4004 18.0292 35.9059 16.7063 35.5607 15.2164C35.4848 16.9857 35.7524 18.6122 36.2874 19.9447C36.7164 21.0153 37.3178 21.8843 38.0493 22.4704C38.731 23.0177 39.5348 23.3101 40.4206 23.2745C40.6644 23.2648 40.9163 23.23 41.1758 23.1691C40.7286 23.0177 40.2908 22.7966 39.8654 22.5116C38.7887 21.7879 37.7977 20.6416 36.9996 19.1484Z" fill="#A9613D"/>
<path fill-rule="evenodd" clip-rule="evenodd" d="M29.251 26.501C33.8109 24.6485 36.1586 25.9897 37.4496 28.9185C38.513 31.3291 38.733 34.8308 38.9576 38.4109L38.9622 38.4749L37.138 36.6275C36.9419 33.8722 36.6597 31.3065 35.8852 29.5501C35.0558 27.669 33.5299 26.7623 30.6032 27.746C30.699 28.0765 30.7971 28.4112 30.8956 28.7505L29.0332 28.4047C28.944 28.0969 28.8536 27.7851 28.7608 27.4688C28.761 27.4685 28.5625 26.7807 28.5625 26.7807L29.251 26.501ZM39.1574 41.3015C39.5805 46.4581 40.5071 51.0606 44.5975 51.1292L46.794 52.414C45.1021 53.6926 41.3549 54.4891 39.3312 53.5257C38.4464 53.1031 37.6583 52.4282 36.9698 51.5886C36.3425 50.8248 35.7916 49.9178 35.3198 48.9437L34.5669 41.1999C36.2512 48.9967 37.8965 51.0263 40.0839 52.0663C40.6791 52.3502 41.3301 52.4498 42.0368 52.3024C42.0682 52.2959 42.0988 52.2888 42.1301 52.281C38.7725 50.8733 37.8988 46.5287 37.4891 41.7577L39.1574 41.3015Z" fill="#A9613D"/>
<path fill-rule="evenodd" clip-rule="evenodd" d="M20.2754 32.9176H20.2766C20.8624 32.8494 21.3758 32.6088 21.8149 32.4038C22.4076 32.1257 22.894 31.898 23.4191 32.081C23.6323 32.1538 23.8422 32.1939 24.059 32.1959C24.2813 32.1994 24.5196 32.1635 24.7847 32.0865C25.2822 31.9436 25.735 32.1667 26.2777 32.4335C26.6989 32.6402 27.1888 32.8808 27.7473 32.936C27.7475 32.936 27.6651 33.7109 27.6651 33.7109C26.9574 33.6402 26.3944 33.363 25.91 33.1246C25.5262 32.936 25.2058 32.779 25.0174 32.8332C24.6761 32.9306 24.359 32.9772 24.0499 32.9729C23.736 32.9694 23.4406 32.9141 23.1434 32.8113C22.9438 32.7421 22.595 32.9057 22.1706 33.1042C21.6739 33.3358 21.0961 33.608 20.376 33.6924H20.3737L20.2754 32.9176Z" fill="#A9613D"/>
<path fill-rule="evenodd" clip-rule="evenodd" d="M21.0193 34.0173C21.1569 34.0953 21.3444 34.1907 21.5645 34.2599C21.7675 34.325 21.9987 34.3673 22.2428 34.3531L22.2618 34.3521C22.3986 34.3434 22.5701 34.3346 22.7709 34.327C22.9257 34.3217 23.1005 34.3162 23.2925 34.3133C24.1942 34.2936 25.1197 34.3142 25.8805 34.3596C26.0758 34.3705 26.2665 34.3359 26.4415 34.2828C26.657 34.2176 26.8386 34.1331 26.9866 34.0616L27.7089 35.4516C27.4922 35.556 27.2258 35.6803 26.9302 35.7704C26.594 35.8723 26.2101 35.9383 25.7869 35.9134C25.044 35.8691 24.2744 36.0414 23.4359 36.0576C23.2869 36.0606 23.0125 35.8745 22.8342 35.8811C22.7021 35.8862 22.5463 35.894 22.3624 35.9059L22.3455 35.907C21.8624 35.936 21.4278 35.8581 21.0575 35.741C20.7043 35.6297 20.4098 35.48 20.1943 35.3575L21.0193 34.0173Z" fill="#A9613D"/>
<path fill-rule="evenodd" clip-rule="evenodd" d="M21.418 16.4774L16.5344 16.0971L16.3596 16.0829L16.2488 15.9487L14.8008 14.1923L15.4362 13.7112L16.7724 15.3342L21.4825 15.7006L21.418 16.4774Z" fill="#A9613D"/>
<path fill-rule="evenodd" clip-rule="evenodd" d="M26.4199 15.7907L31.122 15.4254L32.3636 13.8521L33.0113 14.3225L31.6592 16.0342L31.5484 16.1743L31.3667 16.1872L26.4831 16.5685L26.4199 15.7907Z" fill="#A9613D"/>
<path fill-rule="evenodd" clip-rule="evenodd" d="M18.5717 26.7207C14.0389 24.8082 11.6722 26.1195 10.34 29.031C9.24302 31.4275 8.97342 34.925 8.69895 38.503C8.67419 38.8237 8.64942 39.1445 8.62457 39.465L10.435 38.0877C10.6878 34.8383 10.9688 31.7102 11.8965 29.6819C12.7522 27.8118 14.2893 26.9257 17.2026 27.9463L17.0354 28.4913L18.8955 28.1933L19.048 27.6937L19.2567 27.0089C19.2567 27.0089 18.5715 26.7207 18.5717 26.7207ZM12.9563 41.0565C12.8187 41.5063 12.322 43.6755 12.1798 44.1435L12.1665 44.1881C11.6156 46.4696 10.5962 49.002 9.18337 50.6772C8.63121 51.3314 8.0274 51.8452 7.37965 52.1431C6.78151 52.4173 6.12793 52.5094 5.42352 52.352C5.39309 52.3456 5.36152 52.3384 5.32987 52.3307C8.70251 50.9685 9.63938 46.6465 10.1179 41.8898L8.45614 41.4131C7.95966 46.5547 6.96435 51.1312 2.87848 51.1461L0.665039 52.4021C2.33772 53.7032 6.07378 54.5474 8.11093 53.6103C9.00247 53.2006 9.79948 52.5351 10.5002 51.7053C12.0909 49.8212 13.2204 47.0397 13.8208 44.5584C14.0285 43.875 14.2453 43.1717 14.4667 42.4544L12.9563 41.0565Z" fill="#A9613D"/>
<path fill-rule="evenodd" clip-rule="evenodd" d="M17.9607 28.0718C14.2281 27.9981 13.3355 30.86 12.3905 33.8905C11.5837 36.4821 10.7429 39.1789 8.34764 40.7434C9.00575 40.981 9.63554 41.0914 10.2292 41.0891C11.0409 41.0868 11.7948 40.8724 12.4596 40.4824C13.1367 40.085 13.727 39.5009 14.2011 38.7694C14.305 38.608 14.4031 38.4399 14.4957 38.2666C14.3943 38.8473 15.5173 38.3014 15.1864 39.6252C14.5815 40.5616 14.202 41.2841 13.3039 41.8109C12.3918 42.346 11.3535 42.6409 10.2292 42.6429C8.94254 42.6462 7.55767 42.2649 6.13898 41.4184L4.74707 40.5887L6.27763 40.0294C9.10717 38.9938 9.99215 36.1539 10.8365 33.4451C12.0185 29.6506 13.1323 26.0772 18.6256 26.5518L18.7586 26.5628C18.7586 26.5626 18.8669 26.6059 18.8669 26.6059L19.3187 26.786L17.9607 28.0718Z" fill="#A9613D"/>
<path fill-rule="evenodd" clip-rule="evenodd" d="M20.1651 28.824C16.2297 28.9365 16.2307 31.4363 16.2307 33.7505C16.2317 34.1916 16.2317 34.6271 16.2125 35.0486C16.366 34.6844 16.5161 34.2899 16.6686 33.887C16.8423 33.429 17.0186 32.9627 17.2205 32.4938C17.6674 31.4525 18.4146 30.7818 19.312 30.3387C19.9848 30.0062 20.7319 29.811 21.488 29.6865C21.1822 29.5413 20.9588 29.356 20.7342 29.1696C20.5716 29.0361 20.4079 28.9007 20.1651 28.824ZM14.5353 33.7505C14.533 30.642 14.532 27.2833 20.2623 27.1932L20.3763 27.1912L20.479 27.2148C21.1665 27.3765 21.5039 27.6559 21.8381 27.9321C22.1021 28.15 22.3629 28.3657 23.1922 28.3408L24.2657 28.3069L24.0502 29.3168C23.8595 30.2087 23.2939 30.7494 22.8551 31.0027C22.7658 31.0547 22.6674 31.1005 22.5706 31.1382C22.4542 31.1815 22.3434 31.2099 22.2488 31.2229H22.2419L22.2397 31.2238C21.4759 31.3215 20.7173 31.4774 20.0898 31.7875C19.5275 32.0657 19.0613 32.4795 18.7905 33.1137C18.6088 33.5351 18.436 33.9933 18.2643 34.4431C18.1055 34.8645 18.1257 35.442 17.742 35.7053C16.3648 36.6532 16.3853 38.1572 15.3131 38.6135C14.8929 38.7911 14.4258 38.8616 13.9032 38.7888C13.2678 38.7833 12.8287 38.3739 12.585 37.9241C14.3931 37.4161 14.5366 36.1843 14.5353 33.7505Z" fill="#A9613D"/>
<path fill-rule="evenodd" clip-rule="evenodd" d="M36.7268 12.2715C36.9244 13.1424 37.1839 13.8858 37.491 14.5142C38.2032 15.9681 39.1819 16.8339 40.2371 17.2782C41.2877 17.7203 42.4346 17.7529 43.4774 17.5362C43.9527 17.4376 44.3996 17.2901 44.8015 17.1084L46.6004 16.2954C46.6006 16.2954 45.903 18.0834 45.903 18.0834C45.1424 20.0335 44.0599 21.142 42.8623 21.5938C41.9876 21.9243 41.0733 21.9006 40.1849 21.5938C39.3556 21.3076 38.5586 20.7724 37.8542 20.0508C36.1615 18.3185 34.9434 15.4449 35.1242 12.3928L35.4637 6.67847C35.4639 6.67847 36.7268 12.2715 36.7268 12.2715ZM39.5891 18.704C39.0868 18.4925 38.5983 18.2122 38.1375 17.8535C38.4109 18.2751 38.7124 18.6554 39.0351 18.9847C39.5701 19.5331 40.1513 19.9316 40.7313 20.1321C41.2528 20.3119 41.7802 20.3293 42.2722 20.1443C42.7178 19.9749 43.1501 19.6402 43.5475 19.1104C42.2755 19.3304 40.8894 19.2514 39.5891 18.704Z" fill="#A9613D"/>
<path fill-rule="evenodd" clip-rule="evenodd" d="M37.15 10.6244C37.2311 11.3611 37.395 11.9648 37.6161 12.4523C37.9682 13.2268 38.4626 13.7038 38.9954 13.9703C39.5224 14.2335 40.0978 14.3007 40.6095 14.2487C40.8972 14.2196 41.1589 14.1523 41.3747 14.0624C41.3747 14.0622 42.7607 13.4828 42.7607 13.4828L42.4987 14.9084C42.1636 16.7332 41.405 17.715 40.4874 18.0734C39.8758 18.312 39.2268 18.2687 38.5959 18.0074C38.0484 17.7798 37.518 17.3823 37.0508 16.8655C35.7234 15.3929 34.825 12.8283 35.5686 10.478L36.73 6.81689L37.15 10.6244ZM38.2459 15.3473C38.046 15.2464 37.8498 15.1299 37.6601 14.9931C37.8443 15.3104 38.0529 15.5988 38.2765 15.8468C38.5878 16.1935 38.9187 16.4493 39.2369 16.5804C39.4706 16.678 39.6929 16.7019 39.8781 16.6282C40.132 16.5295 40.3691 16.2705 40.5665 15.8133C39.8307 15.8556 39.0136 15.7321 38.2459 15.3473Z" fill="#A9613D"/>
<path fill-rule="evenodd" clip-rule="evenodd" d="M31.2818 49.5937C31.0819 50.6036 31.4644 49.2081 31.05 50.1551C29.6972 53.2463 27.3008 55.958 24.4834 58.0276L23.9982 58.3843L23.5063 58.0309V58.0299L23.4959 58.0244C22.5874 57.3524 21.7128 56.6312 20.8998 55.8606C20.0793 55.0828 19.3208 54.256 18.6538 53.3818C17.7769 52.2321 17.0521 51.0023 16.541 49.6966L17.5173 47.1625C17.8639 49.0976 18.7453 50.8678 19.9622 52.4618C20.5783 53.27 21.2782 54.0328 22.0355 54.7514C22.6526 55.3374 23.3085 55.892 23.9901 56.4185C27.1757 53.9407 29.6936 50.5807 30.4056 46.8242L31.2818 49.5937Z" fill="#A9613D"/>
<path fill-rule="evenodd" clip-rule="evenodd" d="M29.1927 38.9871C29.414 39.8767 29.5529 40.7405 29.6103 41.5758C29.9108 45.9335 28.0846 49.6436 24.5144 52.57L23.9795 53.0078L23.4557 52.5635L23.4534 52.5655C22.7854 52.0064 22.169 51.4149 21.6125 50.7908C21.0561 50.1669 20.5651 49.5168 20.1462 48.8394C18.2444 45.7688 17.7897 42.1695 19.2311 38.0078L20.8451 38.2903C19.4829 42.0796 19.8528 45.3193 21.5437 48.0477C21.915 48.6489 22.3506 49.2265 22.8438 49.7801C23.1938 50.1721 23.5776 50.5559 23.9928 50.9317C26.8126 48.4083 28.2401 45.2879 27.9918 41.6721C27.9412 40.9309 27.8228 40.1985 27.6501 39.4767C27.5415 39.0262 27.4829 38.6569 27.4715 38.361C27.4705 38.3164 28.7245 38.0587 28.7245 38.0587C28.896 38.3099 29.0596 38.623 29.1927 38.9871Z" fill="#A9613D"/>
<path fill-rule="evenodd" clip-rule="evenodd" d="M29.1437 26.5379C34.6369 26.0634 35.7511 29.6378 36.9338 33.4321C37.7769 36.1409 38.6619 38.9808 41.4915 40.0157L43.022 40.5758L41.6313 41.4049C40.2114 42.2519 38.8265 42.6335 37.5399 42.63C36.4146 42.627 35.3773 42.3323 34.4652 41.7969C34.0724 41.5672 33.7034 41.292 33.3626 40.9778C31.0986 38.8922 33.5116 36.7957 33.5681 38.7557C33.6573 38.8931 33.7497 39.0254 33.847 39.151C34.2653 39.6991 34.7601 40.1457 35.3098 40.4697C35.9744 40.8587 36.7272 41.0744 37.5399 41.0764C38.1335 41.0774 38.7633 40.967 39.4217 40.7307C37.0264 39.1661 36.1856 36.4684 35.3773 33.8765C34.4925 31.0333 33.6515 28.3388 30.4676 28.0775L26.0837 28.5198L25.6006 27.9129L26.5727 27.5241L28.9022 26.5932L29.0117 26.5498L29.1437 26.5379Z" fill="#A9613D"/>
<path fill-rule="evenodd" clip-rule="evenodd" d="M21.0798 36.1906L23.6665 35.116L23.9905 34.9814L24.308 35.1127L26.8811 36.1776L27.1577 36.2927L27.2751 36.5756L27.2908 36.5572C26.3833 37.5472 27.0248 37.7835 27.8506 37.92C27.9998 38.3883 28.1015 38.853 28.153 39.3135C28.5077 42.4849 26.5267 45.8643 23.9928 47.5654C20.9037 45.5468 19.2108 41.7178 20.1148 38.1086C20.1429 37.9915 20.1758 37.8757 20.2095 37.7596C20.2727 37.5494 21.0729 38.1507 21.1544 37.9462C21.2345 37.7412 20.5967 36.7313 20.6893 36.532C20.7232 36.4574 20.7929 36.3102 20.7929 36.3102L21.0798 36.1906ZM23.9941 36.6807L22.0167 37.4941C21.1349 40.1087 21.7288 43.6487 23.9974 45.4029C26.0122 43.8923 26.6013 41.2509 26.407 39.5172C26.3653 39.1454 26.4184 38.7382 26.3021 38.3708C26.2108 38.0824 26.0944 37.789 25.9568 37.4932L23.9941 36.6807Z" fill="#A9613D"/>
<path fill-rule="evenodd" clip-rule="evenodd" d="M20.6537 37.5299C20.6481 37.0781 20.552 36.7486 20.3929 36.5103C20.1455 36.1397 19.6819 35.9534 19.1649 35.8408C16.3761 35.6433 15.551 39.3545 14.6197 43.5388C13.4878 48.625 12.2188 54.3253 7.15911 55.8498C7.57319 55.972 7.97408 56.0493 8.36105 56.0816C10.1762 56.2388 11.7732 55.4543 13.1218 54.1358C14.5519 52.7379 15.7043 50.7552 16.5564 48.627C17.939 45.1728 18.5149 41.384 18.184 39.0892C18.1051 38.5485 18.2877 38.1127 18.6267 37.8041C18.8523 37.5981 19.1366 37.4639 19.4515 37.4041C19.7259 37.3534 20.0307 37.3608 20.3339 37.4313C20.4415 37.4562 20.5488 37.4889 20.6537 37.5299ZM21.8319 35.6694C22.8805 37.2418 21.9967 39.5799 21.7067 41.3146L20.5171 39.4327C20.3828 39.1475 20.1625 38.9914 19.9539 38.9428C19.8974 38.9296 19.8443 38.9254 19.7967 38.9296C20.1445 41.451 19.5339 45.5166 18.0664 49.1819C17.1412 51.4963 15.8702 53.6688 14.2767 55.2257C12.6026 56.8627 10.5778 57.8338 8.22224 57.6297C6.91403 57.5175 5.52342 57.0405 4.06296 56.1118L1.89258 54.7338L4.49776 54.686C10.5057 54.5766 11.8521 48.5254 13.0328 43.216C14.1265 38.297 15.097 33.9371 19.3432 34.2893L19.383 34.2924L19.4404 34.3042C20.3547 34.4939 21.2845 34.8483 21.8319 35.6694Z" fill="#A9613D"/>
<path fill-rule="evenodd" clip-rule="evenodd" d="M32.0834 14.966C32.0812 14.9618 32.0765 14.9541 32.0685 14.9434C31.9908 14.8383 31.7988 14.7907 31.5572 14.7895C31.1951 14.7873 30.7775 14.8978 30.3948 15.0938C30.2965 15.1449 30.1973 15.2024 30.1014 15.2697L30.0979 15.2717L30.0777 15.2859C29.9016 15.4039 29.7097 15.521 29.5088 15.6357C29.3158 15.7441 29.1092 15.8524 28.8982 15.9595C27.8946 16.4656 26.8282 16.8798 26.739 16.9132L26.7402 16.9154L26.7366 16.9177H26.7334C26.6215 16.9588 26.5315 17.004 26.4602 17.0519C26.4005 17.093 26.3474 17.1408 26.2998 17.1948C26.0517 17.4842 26.0808 17.9577 26.231 18.4279H26.232L26.8201 20.1658L26.8497 20.2557L26.8575 20.3394C26.9207 21.026 26.7435 21.6329 26.5697 22.2299C26.44 22.6773 26.3125 23.1183 26.3483 23.4812C26.3643 23.6396 26.4647 23.8303 26.616 24.0384C26.809 24.3049 27.071 24.5757 27.353 24.84C27.4592 24.9344 27.5516 25.045 27.6307 25.1685C27.7006 25.2746 27.7649 25.4001 27.8238 25.5379C28.0845 26.1391 28.2085 27.0352 28.1204 27.4795C27.9636 28.2856 27.4026 28.5577 26.8044 28.8478C26.5583 28.9661 26.2998 29.0909 26.1984 29.238L25.9624 29.576L25.5347 29.5827L24.03 29.6042L24.0107 28.0505L25.1477 28.0344C25.433 27.7689 25.7603 27.6105 26.0742 27.4578C26.3033 27.3463 26.5176 27.2422 26.5279 27.1933C26.5697 26.9824 26.4827 26.4922 26.3258 26.1284C26.3044 26.0786 26.2806 26.032 26.2536 25.9907C26.246 25.9777 26.2659 25.9919 26.2558 25.9832L26.2525 25.9799L26.2232 25.9551C25.8689 25.6235 25.538 25.2801 25.2828 24.9279C24.9851 24.5173 24.7807 24.0849 24.7357 23.6279C24.6724 22.9766 24.8383 22.4 25.0086 21.816C25.134 21.3849 25.2603 20.9483 25.2433 20.5483L24.6894 18.909L24.6859 18.8971C24.3879 17.9761 24.3879 16.9707 25.0493 16.2024C25.1801 16.0497 25.3407 15.909 25.5337 15.7789C25.714 15.6574 25.9161 15.5524 26.1397 15.4679V15.4669L26.143 15.4657H26.1496C26.1734 15.457 27.1725 15.0724 28.1429 14.5828C28.3238 14.4916 28.5054 14.3952 28.6825 14.2943C28.8506 14.1989 29.0065 14.1035 29.1443 14.0114L29.1645 13.9975V13.9987C29.3102 13.9001 29.4671 13.808 29.633 13.7223C30.2459 13.4092 30.9398 13.2326 31.5641 13.2359C32.3103 13.2392 32.9793 13.4884 33.388 14.0421C33.4308 14.0993 33.4725 14.1634 33.5122 14.2348C33.5122 14.2348 32.0834 14.9663 32.0834 14.966Z" fill="#A9613D"/>
<path fill-rule="evenodd" clip-rule="evenodd" d="M14.502 14.2261C14.5414 14.1543 14.5831 14.0908 14.6249 14.0321C15.0346 13.4794 15.7039 13.2303 16.4488 13.2259C17.0731 13.2226 17.7694 13.4005 18.3809 13.7135C18.5458 13.7979 18.7027 13.8901 18.8484 13.9899C18.8484 13.9897 18.8494 13.9887 18.8494 13.9887L18.8686 14.0029C19.0064 14.0948 19.1633 14.1902 19.3302 14.2856C19.5075 14.3855 19.6904 14.4818 19.871 14.5737C20.8496 15.0669 21.8383 15.4472 21.8608 15.4556H21.8697L21.8742 15.4569L21.8732 15.4579C22.0968 15.5424 22.2989 15.6476 22.4805 15.7689C22.6735 15.899 22.8339 16.0409 22.9646 16.1926C23.626 16.961 23.6251 17.9674 23.327 18.8873L23.3236 18.899L22.7694 20.5396C22.7526 20.9383 22.8802 21.3762 23.0053 21.8062C23.1746 22.3913 23.3418 22.9666 23.2773 23.6179C23.2332 24.0762 23.0291 24.5085 22.7312 24.9182C22.476 25.2701 22.1441 25.6148 21.7898 25.9453C21.7898 25.9451 21.7614 25.9699 21.7614 25.9699H21.7601L21.7584 25.9734C21.7467 25.9819 21.7682 25.9679 21.7601 25.9812C21.7334 26.0223 21.7086 26.0686 21.6871 26.1196C21.5302 26.4837 21.4442 26.9714 21.485 27.1835C21.4976 27.2433 21.7311 27.3624 21.9782 27.4892C22.2863 27.6453 22.6047 27.8087 22.8834 28.0677L25.5155 28.0286L25.5347 29.5827L22.5255 29.626L22.0877 29.6322L21.8441 29.2824C21.7389 29.1329 21.4715 28.9964 21.2163 28.8662C20.6158 28.5596 20.0493 28.2705 19.8925 27.4697C19.8055 27.0254 19.9296 26.1296 20.1892 25.5278C20.2481 25.3904 20.3134 25.2659 20.3822 25.1588C20.4624 25.0352 20.5537 24.9247 20.6609 24.8303H20.6599C20.9432 24.5661 21.2039 24.296 21.3979 24.0295C21.5492 23.8203 21.6498 23.6296 21.6655 23.4717C21.7005 23.1086 21.5729 22.6687 21.4432 22.2214C21.2705 21.6242 21.0931 21.0165 21.1554 20.3304L21.1632 20.2459L21.1938 20.1563C21.1938 20.156 21.7817 18.4181 21.7817 18.4181V18.4191C21.9321 17.9492 21.9625 17.4744 21.7141 17.1851C21.6668 17.131 21.6134 17.0835 21.5538 17.0431C21.4827 16.9945 21.3924 16.9487 21.2808 16.9076H21.2773L21.2738 16.9066L21.275 16.9034C21.1691 16.8633 20.1022 16.4483 19.1147 15.951C18.9037 15.8437 18.6971 15.7343 18.5051 15.626C18.3043 15.5121 18.1113 15.3951 17.9365 15.2761L17.9151 15.2619L17.9128 15.2597C17.8157 15.1937 17.7175 15.1341 17.6191 15.0843C17.2367 14.8893 16.8178 14.7787 16.4553 14.7797C16.2151 14.7807 16.0231 14.8295 15.9454 14.9347C15.9373 14.9453 15.9318 14.9531 15.9295 14.9575L14.502 14.2261Z" fill="#A9613D"/>
<path fill-rule="evenodd" clip-rule="evenodd" d="M15.3984 14.356L17.0111 15.8264C17.0111 15.8262 21.5713 16.1806 21.5713 16.1806C21.5713 16.1803 18.3816 14.626 18.3816 14.626L16.7585 14.019L15.3984 14.356Z" fill="#A9613D"/>
<path fill-rule="evenodd" clip-rule="evenodd" d="M32.3831 14.5911L30.5849 15.8262L26.0264 16.1803L29.2158 14.626L30.8389 14.019L32.3831 14.5911Z" fill="#A9613D"/>
<path fill-rule="evenodd" clip-rule="evenodd" d="M27.4102 23.6807C27.6414 23.6005 27.865 23.5529 28.0805 23.5335C28.8514 23.465 29.4701 23.7437 29.9542 24.2052C30.3695 24.6005 30.6697 25.1314 30.8709 25.6699C31.0467 26.1369 31.1496 26.618 31.1877 27.0113L31.2725 27.8815L30.3627 27.8588L27.7949 27.7948L27.8334 26.241L29.3785 26.2801C29.3694 26.2509 29.3583 26.2225 29.3479 26.1934C29.2204 25.8529 29.0421 25.5272 28.8119 25.308C28.6503 25.1541 28.4563 25.061 28.2262 25.0816C28.145 25.0893 28.0556 25.1088 27.9565 25.1434L27.4102 23.6807Z" fill="#A9613D"/>
<path fill-rule="evenodd" clip-rule="evenodd" d="M20.1961 25.0175C20.097 24.9842 20.0066 24.9635 19.9252 24.9558C19.6961 24.9354 19.5008 25.0295 19.3395 25.1824C19.1093 25.4023 18.931 25.7273 18.8032 26.0686C18.7921 26.1012 18.7797 26.1338 18.7683 26.1672L20.6678 26.1435L20.6871 27.6971L17.7796 27.734L16.8799 27.7449L16.9649 26.8867C17.0031 26.4922 17.1058 26.0125 17.2808 25.5443C17.4816 25.0068 17.7819 24.4749 18.1972 24.0793C18.6813 23.6188 19.301 23.3394 20.0709 23.4087C20.2864 23.428 20.511 23.4759 20.7425 23.5548L20.1961 25.0175Z" fill="#A9613D"/>
<path fill-rule="evenodd" clip-rule="evenodd" d="M12.4542 14.5869C12.1135 16.2922 11.5796 17.7885 10.9161 19.0335C10.1189 20.5308 9.12915 21.6762 8.05242 22.3945C7.6224 22.6826 7.17772 22.9038 6.72527 23.0545C7.06141 23.1389 7.38767 23.1823 7.70261 23.1865C8.59876 23.1995 9.41366 22.8964 10.1032 22.3437L10.1022 22.3414C10.8347 21.7552 11.4341 20.893 11.855 19.831C12.4297 18.377 12.6667 16.5696 12.4542 14.5869ZM9.47565 18.326C10.5807 16.2521 11.2907 13.3733 11.2477 9.93659C11.2477 9.93635 11.1971 5.78564 11.1971 5.78564C11.1971 5.78549 12.8099 9.63725 12.8099 9.63725C14.4974 13.6679 14.4804 17.5783 13.3708 20.3791C13.0628 21.1602 12.6674 21.8603 12.2003 22.4585C12.0219 22.6872 11.8798 23.2462 11.6236 23.1063C10.6417 22.5721 9.59658 24.5909 8.27824 24.7164C8.08075 24.7359 7.88091 24.7436 7.67784 24.7403C5.94979 24.7144 4.02976 23.8801 2.08496 21.9903L3.2092 20.8733L3.24085 20.9002L3.24206 20.9014C3.72519 21.3176 4.22604 21.5721 4.72729 21.6773C5.51645 21.8441 6.34129 21.6381 7.12592 21.1151C7.99269 20.5363 8.8041 19.5872 9.47565 18.326Z" fill="#A9613D"/>
<path fill-rule="evenodd" clip-rule="evenodd" d="M10.3939 14.3788C10.7009 13.7504 10.9604 13.0069 11.1578 12.135L12.4209 6.54175L12.7606 12.2573C12.9425 15.3084 11.7246 18.183 10.0317 19.9154C9.32724 20.6359 8.52926 21.1712 7.6994 21.4586C6.81158 21.7652 5.89721 21.7888 5.02234 21.4586C3.82493 21.0065 2.74238 19.8983 1.98155 17.9479L1.28418 16.16L3.08329 16.9727C3.48523 17.1537 3.93218 17.3009 4.40721 17.4007C5.45027 17.6174 6.59709 17.5848 7.64776 17.1427C8.70304 16.6984 9.68159 15.8329 10.3939 14.3788ZM9.74715 17.7181C9.28653 18.0767 8.79911 18.3564 8.29551 18.5676C6.99547 19.1148 5.60915 19.1949 4.33712 18.975C4.73469 19.5047 5.16698 19.8395 5.61263 20.0076C6.10482 20.1939 6.63198 20.1764 7.15452 19.9957C7.73347 19.7951 8.31478 19.3974 8.8497 18.8492C9.1724 18.5187 9.47496 18.1385 9.74715 17.7181Z" fill="#A9613D"/>
<path fill-rule="evenodd" clip-rule="evenodd" d="M10.2553 12.3352C10.465 11.8705 10.6231 11.3049 10.7056 10.6235L11.1075 7.2959L12.2771 10.4533C13.112 12.708 12.252 15.2446 10.9291 16.7472C10.4516 17.2902 9.90298 17.7126 9.33997 17.9563C8.68995 18.2383 8.0184 18.2935 7.384 18.053C6.45603 17.7018 5.69116 16.7323 5.3568 14.9172L5.09375 13.4913L6.48104 14.0711C6.66162 14.1468 6.88169 14.2021 7.12556 14.2293C7.64454 14.2868 8.24405 14.2121 8.80075 13.9304C9.36473 13.644 9.89084 13.1392 10.2553 12.3352ZM10.3479 14.7959C10.094 14.9996 9.82762 15.1687 9.55575 15.3075C8.80504 15.6878 8.00698 15.8284 7.28566 15.8025C7.48218 16.2534 7.72046 16.5067 7.97436 16.6032C8.17493 16.678 8.41653 16.6476 8.67271 16.537C9.01621 16.3888 9.367 16.1114 9.69205 15.7418C9.93487 15.4668 10.1572 15.1461 10.3479 14.7959Z" fill="#A9613D"/>
<path fill-rule="evenodd" clip-rule="evenodd" d="M12.8073 9.9386C14.3504 9.72517 15.8571 9.55709 17.3312 9.43356C19.0807 9.28731 20.8401 9.19869 22.6099 9.16506C22.6099 9.16482 23.4386 9.14888 23.4386 9.14888V12.4326L24.0446 13.0231L24.6709 12.4274V9.1476L25.4949 9.16179C27.339 9.19215 29.1359 9.28309 30.8854 9.43276C32.3338 9.55509 33.7851 9.72094 35.24 9.92537L35.2658 7.1323C32.1045 6.61323 29.1708 6.53951 25.9102 6.45735L25.8629 6.45607L24.8119 6.43017L25.0998 5.46711C25.0998 5.46687 26.2704 1.56195 26.2704 1.56195L21.6144 1.56091L22.9451 5.40112C22.9451 5.40088 23.2918 6.39981 23.2918 6.39981L22.1933 6.42172C20.4825 6.45607 18.778 6.50811 17.0274 6.63937C15.5455 6.74975 14.0659 6.91561 12.5784 7.17335L12.8073 9.9386ZM17.471 10.9876C15.7 11.1358 13.9396 11.3383 12.1911 11.5985L11.3275 11.7263C11.3279 11.7263 11.2587 10.891 11.2587 10.891L10.9021 6.60255L10.8447 5.91668L11.5521 5.78016C13.3763 5.42686 15.1507 5.21559 16.9066 5.0844C18.2747 4.98271 19.6617 4.92876 21.0647 4.89281C21.0647 4.89265 19.724 1.02774 19.724 1.02774L19.3694 0.00610352L20.4913 0.00705988L27.3471 0.00809594H28.4249L28.1282 0.998572L26.9508 4.92939C30.1201 5.01307 33.031 5.13437 36.2307 5.71839L36.8969 5.84089C36.8969 5.84073 36.8913 6.4897 36.8913 6.4897L36.8493 10.8357L36.8415 11.7393L35.9138 11.5985C34.232 11.3408 32.5098 11.1358 30.7453 10.9864C29.2555 10.8593 27.7713 10.7752 26.2951 10.7329V13.0712L26.0536 13.3009C26.0536 13.3005 24.6089 14.6779 24.6089 14.6779L24.0297 15.2283C24.0297 15.228 23.4598 14.6713 23.4598 14.6713L22.0479 13.2943C22.0479 13.2941 21.8129 13.0654 21.8129 13.0654V10.7383C20.3988 10.7816 18.9508 10.8641 17.471 10.9876Z" fill="#A9613D"/>
<path fill-rule="evenodd" clip-rule="evenodd" d="M10.8639 9.48131C10.945 7.56555 10.7872 5.71506 10.4912 3.84497L13.0287 6.02046L12.2567 6.45928L10.8639 9.48131Z" fill="#A9613D"/>
<path fill-rule="evenodd" clip-rule="evenodd" d="M10.8639 9.48131C10.945 7.56555 10.7872 5.71506 10.4912 3.84497L13.0287 6.02046L12.2567 6.45928L10.8639 9.48131Z" fill="#A9613D"/>
<path fill-rule="evenodd" clip-rule="evenodd" d="M37.0231 9.72527C37.0062 7.80856 37.1177 5.64805 37.4756 3.7876L34.9756 6.20162L35.7319 6.66315L37.0231 9.72527Z" fill="#A9613D"/>
<path fill-rule="evenodd" clip-rule="evenodd" d="M37.0231 9.72527C37.0062 7.80856 37.1177 5.64805 37.4756 3.7876L34.9756 6.20162L35.7319 6.66315L37.0231 9.72527Z" fill="#A9613D"/>
<path fill-rule="evenodd" clip-rule="evenodd" d="M27.4043 19.6771C28.4721 17.1883 29.3752 17.0841 32.2011 17.1449C32.3187 18.2186 32.2859 19.0833 31.5534 19.5602C30.3335 20.353 28.6153 19.8927 27.4043 19.6771ZM30.033 19.223C30.4291 19.223 30.7496 18.9144 30.7496 18.5349C30.7496 18.1558 30.4291 17.847 30.033 17.847C29.6382 17.8467 29.3175 18.1558 29.3175 18.5349C29.3175 18.9142 29.6382 19.223 30.033 19.223Z" fill="#A9613D"/>
<path fill-rule="evenodd" clip-rule="evenodd" d="M27.4043 19.6771C28.4721 17.1883 29.3752 17.0841 32.2011 17.1449C32.3187 18.2186 32.2859 19.0833 31.5534 19.5602C30.3335 20.353 28.6153 19.8927 27.4043 19.6771ZM30.033 19.223C30.4291 19.223 30.7496 18.9144 30.7496 18.5349C30.7496 18.1558 30.4291 17.847 30.033 17.847C29.6382 17.8467 29.3175 18.1558 29.3175 18.5349C29.3175 18.9142 29.6382 19.223 30.033 19.223Z" fill="#A9613D"/>
<path fill-rule="evenodd" clip-rule="evenodd" d="M27.8937 28.8545C31.8291 28.9683 31.8291 31.4668 31.8282 33.782C31.8271 34.2221 31.8271 34.6577 31.8461 35.0791C31.6928 34.7162 31.5436 34.3207 31.3902 33.9188C31.2165 33.4605 31.0393 32.9935 30.8384 32.5243C30.3915 31.484 29.644 30.8124 28.7469 30.3692C28.0731 30.0365 27.3269 29.8425 26.5719 29.717C26.8767 29.5715 27.1001 29.3865 27.3249 29.2012C27.487 29.0677 27.6509 28.9325 27.8937 28.8545ZM33.5235 33.782C33.5259 30.6723 33.5271 27.3137 27.7966 27.2237L27.6826 27.2217L27.5799 27.2453C26.8927 27.4078 26.555 27.6865 26.2208 27.9626C25.9568 28.1816 25.6947 28.397 24.8677 28.3713L23.793 28.3387C23.7932 28.3387 24.0097 29.3486 24.0097 29.3486C24.1994 30.2393 24.7647 30.7799 25.2041 31.0345C25.2931 31.0853 25.3913 31.1308 25.4896 31.1688C25.6045 31.2131 25.714 31.2414 25.8101 31.2544H25.8192C26.5833 31.352 27.3429 31.5089 27.9692 31.819C28.5314 32.0964 28.9973 32.5101 29.2685 33.144C29.45 33.5653 29.6238 34.0238 29.7946 34.4734C29.9152 34.7932 30.0437 35.116 30.1829 35.4345C30.7549 36.7532 32.3135 37.335 32.5326 38.5422C32.6249 39.0545 33.5428 38.905 34.1557 38.8194C34.791 38.8139 35.2301 38.4045 35.4739 37.9559C33.6657 37.4476 33.5226 36.2158 33.5235 33.782Z" fill="#A9613D"/>
<path fill-rule="evenodd" clip-rule="evenodd" d="M20.5094 19.6434C19.4418 17.1533 18.539 17.0505 15.7138 17.1113C15.5964 18.1839 15.6278 19.0487 16.3603 19.5254C17.5807 20.3183 19.2984 19.8579 20.5094 19.6434ZM17.8809 19.1884C17.4846 19.1884 17.1641 18.8805 17.1641 18.5005C17.1641 18.1212 17.4846 17.8136 17.8809 17.8136C18.276 17.8133 18.5975 18.1212 18.5975 18.5005C18.5975 18.8805 18.2758 19.1884 17.8809 19.1884Z" fill="#A9613D"/>
<path fill-rule="evenodd" clip-rule="evenodd" d="M20.5094 19.6434C19.4418 17.1533 18.539 17.0505 15.7138 17.1113C15.5964 18.1839 15.6278 19.0487 16.3603 19.5254C17.5807 20.3183 19.2984 19.8579 20.5094 19.6434ZM17.8809 19.1884C17.4846 19.1884 17.1641 18.8805 17.1641 18.5005C17.1641 18.1212 17.4846 17.8136 17.8809 17.8136C18.276 17.8133 18.5975 18.1212 18.5975 18.5005C18.5975 18.8805 18.2758 19.1884 17.8809 19.1884Z" fill="#A9613D"/>
<path fill-rule="evenodd" clip-rule="evenodd" d="M27.4101 37.5471C27.417 37.0943 27.5128 36.7661 27.6707 36.5274C27.9191 36.1561 28.3829 35.9708 28.9 35.858C31.689 35.6607 32.5141 39.3709 33.4452 43.5552C34.576 48.6421 35.8457 54.3425 40.9057 55.8659C40.4914 55.9895 40.0907 56.0654 39.7025 56.0988C37.8889 56.2562 36.2917 55.4717 34.9428 54.152C33.514 52.7553 32.3593 50.7713 31.5082 48.6447C30.1257 45.1903 29.55 41.4012 29.8818 39.1064C29.9597 38.5659 29.7768 38.1304 29.4382 37.8216C29.2123 37.6155 28.927 37.4811 28.6131 37.4228C28.339 37.3705 28.0354 37.3782 27.7306 37.4484C27.6234 37.4734 27.5161 37.506 27.4101 37.5471ZM26.2328 35.6869C25.1844 37.2589 26.0669 39.5973 26.3582 41.3319L27.548 39.4499C27.683 39.1647 27.9021 39.0078 28.1108 38.9602C28.1675 38.946 28.2203 38.9427 28.2678 38.946C27.9213 41.4684 28.5309 45.5337 29.9982 49.199C30.9237 51.5125 32.1944 53.686 33.7884 55.243C35.4621 56.8801 37.4871 57.8499 39.8424 57.6462C41.1518 57.5336 42.5412 57.0577 44.0029 56.1294L46.171 54.7512C46.171 54.7509 43.5671 54.7036 43.5671 54.7036C37.5591 54.5938 36.2125 48.5425 35.032 43.2335C33.9384 38.3144 32.9676 33.9543 28.7226 34.3066C28.7226 34.3064 28.6809 34.3096 28.6809 34.3096L28.6245 34.3216C27.7104 34.5101 26.7801 34.8655 26.2328 35.6869Z" fill="#A9613D"/>
<path fill-rule="evenodd" clip-rule="evenodd" d="M29.2344 58.8002C29.764 59.381 30.3597 59.9262 31.0269 60.4168C31.6918 60.9054 32.4332 61.3443 33.256 61.7159V61.7169L33.2616 61.7194L34.2685 62.1766L34.412 61.1135C34.6591 59.2585 34.5619 56.6419 34.2382 53.8737L32.3948 51.8843L32.3159 51.7229C32.7784 54.6365 33.0248 57.5661 32.9082 59.7723C32.5945 59.588 32.2956 59.3898 32.0101 59.1795C31.4288 58.7516 30.9108 58.2792 30.4535 57.7764C28.7515 56.8944 29.0553 58.603 29.2344 58.8002Z" fill="#A9613D"/>
</g>
</g>
<defs>
<clipPath id="clip0_83_519">
<rect width="48" height="64" fill="white"/>
</clipPath>
</defs>
</svg>
